<svg width="372" height="225" viewBox="0 0 372 225" fill="none" xmlns="http://www.w3.org/2000/svg">
<path d="M174.11 52.5774C173.411 52.5774 172.811 52.0805 172.711 51.3848C172.611 50.5898 173.211 49.8942 173.91 49.7948C181.306 48.9004 188.902 47.7078 196.198 46.714C222.784 42.7389 250.269 38.6643 275.156 44.5277C275.955 44.7265 276.355 45.4221 276.155 46.2171C275.955 47.0122 275.256 47.4097 274.456 47.2109C250.069 41.447 224.083 45.3227 196.598 49.3973C189.302 50.4904 181.706 51.5836 174.21 52.5774H174.11Z" fill="black"/>
<path d="M235.377 64.0062C216.587 64.0062 190.402 58.441 157.619 47.5093C141.228 42.0435 121.439 37.7702 98.1511 47.6087C97.4515 47.9069 96.552 47.6087 96.2521 46.8137C95.9523 46.0187 96.2521 45.2236 97.0517 44.9255C121.339 34.6895 142.627 39.4597 158.519 44.7267C191.001 55.559 216.787 61.0249 235.377 61.0249C236.177 61.0249 236.777 61.6211 236.777 62.4162C236.777 63.2112 236.077 64.0062 235.377 64.0062Z" fill="black"/>
<path d="M184.605 225C179.207 225 173.81 224.602 168.413 223.807C139.029 219.633 112.943 203.733 95.0527 178.987C94.553 178.391 94.7529 177.497 95.3526 177C95.9523 176.503 96.8518 176.702 97.3515 177.298C132.433 225.696 197.698 236.428 249.27 202.342C249.969 201.944 250.769 202.043 251.269 202.739C251.669 203.435 251.569 204.23 250.869 204.727C230.68 218.043 207.692 225 184.605 225Z" fill="black"/>
<path d="M288.749 73.2483C288.149 73.2483 287.649 72.8508 287.449 72.2546C274.456 35.4844 237.576 -1.68332 172.811 4.47817C149.224 6.76389 129.035 15.5092 112.543 30.7142C96.3521 45.7204 88.0565 63.2111 84.5584 72.2546C84.2586 72.9502 83.459 73.3477 82.7594 73.0496C82.0598 72.7514 81.66 71.9564 81.9598 71.2608C85.5579 61.9192 94.0533 44.031 110.644 28.6272C127.535 13.1241 148.324 3.98128 172.511 1.69557C238.875 -4.66468 276.755 33.4968 290.048 71.3602C290.348 72.0558 289.948 72.8508 289.148 73.149C289.048 73.149 288.849 73.2483 288.749 73.2483Z" fill="black"/>
<path d="M354.513 190.615C350.316 190.615 348.417 182.267 346.018 171.733C344.419 164.478 342.52 156.23 340.021 153.05C338.622 151.261 334.724 148.081 330.626 144.801C326.328 141.323 321.931 137.745 319.032 134.764C312.536 128.006 311.337 113.397 312.936 102.764C314.035 95.6086 318.733 90.6397 327.428 87.6583C301.842 88.9502 282.352 88.5527 254.267 86.4658C252.068 86.267 250.169 86.1676 248.47 85.9689C235.477 84.7763 234.078 84.6769 225.483 100.279C220.485 109.422 220.086 110.317 219.286 112.106C218.786 113.199 218.287 114.59 216.687 117.869L216.088 119.062C214.588 122.242 213.589 124.23 211.89 126.814C211.49 127.41 210.591 127.609 209.891 127.211C209.291 126.814 209.091 125.919 209.491 125.224C211.09 122.838 211.99 121.05 213.489 117.869L214.089 116.677C215.688 113.397 216.188 112.106 216.587 111.112C217.387 109.124 217.787 108.23 222.884 98.9875C232.079 82.2918 234.678 81.9937 248.57 83.2856C250.269 83.4844 252.168 83.5838 254.367 83.7825C285.45 86.0683 306.039 86.267 336.023 84.4782C338.922 84.2794 341.52 84.3788 343.919 84.6769C346.118 84.4782 348.417 84.3788 350.815 84.2794C357.012 84.0807 361.809 85.9689 365.208 89.8446C370.904 96.4037 372.304 108.528 369.205 125.82C367.306 136.851 368.306 148.578 371.704 154.441C372.104 155.137 371.904 155.932 371.204 156.329C370.505 156.727 369.705 156.528 369.305 155.832C365.507 149.373 364.408 137.149 366.407 125.323C369.305 108.826 368.206 97.4968 363.009 91.6335C360.51 88.7515 357.012 87.2608 352.514 87.062C356.412 89.0496 359.211 92.2297 360.71 96.4037C364.708 107.335 364.808 130.689 358.211 150.665C356.612 155.633 357.312 164.677 357.812 170.143C357.911 171.037 357.911 171.832 358.011 172.528V173.124C358.711 182.665 359.011 190.019 354.913 190.615C354.813 190.615 354.713 190.615 354.513 190.615ZM344.019 87.2608C326.229 88.7515 317.233 93.8198 315.734 103.062C313.535 117.373 316.934 128.404 321.031 132.776C323.73 135.658 328.128 139.137 332.325 142.515C336.823 146.093 340.621 149.273 342.22 151.261C345.118 154.938 346.917 163.186 348.716 171.037C350.016 177 352.614 188.031 354.513 187.733C354.513 187.733 355.413 187.335 355.613 183.261C355.713 180.18 355.513 176.304 355.213 173.224V172.627C355.113 171.932 355.113 171.137 355.013 170.242C354.513 164.18 353.714 155.137 355.513 149.671C362.009 130.192 361.909 107.733 358.011 97.1987C356.013 91.5341 351.415 88.2546 344.019 87.2608Z" fill="black"/>
<path d="M336.323 188.627C336.223 188.627 336.123 188.627 336.023 188.627C331.026 188.23 331.026 182.366 331.026 168.354C331.026 167.062 331.026 165.671 331.026 164.18C331.026 163.385 331.026 162.491 331.126 161.596C331.326 156.23 331.026 153.944 328.927 153.745C325.829 153.546 324.929 153.745 322.131 154.54L321.531 154.739C320.132 155.137 317.833 156.031 315.734 156.925C313.335 157.919 311.037 158.814 309.737 159.112C307.838 159.509 306.139 159.112 299.743 157.72C298.243 157.422 296.544 157.025 294.446 156.528L293.746 156.329C284.951 154.441 279.853 153.348 273.557 151.758C272.957 154.143 272.657 156.727 272.657 159.509C272.857 175.012 272.757 183.857 268.26 184.255C264.062 184.652 263.462 181.174 261.663 171.832C261.363 170.441 261.163 168.851 260.864 167.261C260.264 163.584 259.065 155.932 257.665 155.137C256.466 156.13 255.367 162.789 254.767 166.366C254.467 168.354 254.167 170.242 253.767 171.832L253.568 172.627C251.768 181.074 250.769 185.646 248.27 187.037C247.471 187.534 246.571 187.633 245.672 187.335C242.473 186.341 242.374 181.174 242.374 175.708C242.374 174.814 242.374 174.019 242.374 173.223C242.074 164.18 241.274 160.105 240.674 157.025C240.475 156.23 240.375 155.435 240.175 154.64C239.575 151.261 238.276 149.074 236.577 148.478C234.278 147.683 230.78 149.273 226.782 152.95C220.485 158.714 218.386 162.192 216.587 164.975C215.588 166.565 214.688 168.056 213.289 169.646C209.691 173.522 204.194 175.807 199.696 177.199C198.897 177.497 197.498 178.292 196.298 179.087C194.999 179.882 193.9 180.578 193 180.876C190.302 181.77 187.003 180.776 184.505 178.391C181.906 175.907 180.907 172.627 181.806 169.646C182.606 166.863 184.305 162.689 185.604 159.41C186.504 157.223 187.203 155.236 187.503 154.242C187.903 153.149 188.103 151.956 188.403 150.764C189.002 147.981 189.602 145.099 191.601 143.211C192.001 142.814 192.101 142.317 192.4 141.422C192.8 139.932 193.4 137.944 195.899 136.056C197.797 134.565 199.397 134.863 200.496 135.062C200.796 135.161 201.096 135.161 201.296 135.161C201.595 133.869 201.995 132.677 202.195 132.081L202.295 131.882C203.494 129.298 205.194 127.907 207.192 127.907C208.991 128.006 210.591 129.397 211.49 131.584C212.09 133.174 213.889 138.143 208.392 145.795C207.892 146.391 207.092 146.59 206.393 146.093C205.793 145.596 205.593 144.801 206.093 144.105C210.79 137.745 209.391 133.969 208.892 132.578C208.492 131.484 207.792 130.789 207.192 130.689C206.493 130.689 205.593 131.584 204.994 132.876C204.694 133.77 204.294 135.161 203.994 136.553C203.894 137.05 203.594 137.447 203.195 137.546C201.995 138.043 200.896 137.845 200.096 137.745C199.097 137.546 198.597 137.447 197.698 138.143C195.899 139.534 195.599 140.826 195.099 142.118C194.799 143.112 194.499 144.205 193.6 145.099C192.2 146.391 191.701 148.776 191.201 151.261C190.901 152.453 190.701 153.745 190.302 155.037C189.902 156.13 189.202 158.118 188.303 160.304C187.003 163.584 185.404 167.658 184.605 170.341C184.005 172.329 184.705 174.515 186.504 176.205C188.203 177.894 190.501 178.59 192.101 177.994C192.6 177.795 193.8 177.099 194.799 176.503C196.198 175.609 197.698 174.714 198.797 174.317C202.895 172.925 208.092 170.938 211.19 167.459C212.49 166.068 213.289 164.776 214.189 163.186C215.988 160.205 218.286 156.627 224.883 150.565C229.88 145.994 234.078 144.304 237.576 145.497C239.575 146.192 242.174 148.18 243.073 153.944C243.173 154.64 243.373 155.335 243.473 156.23C244.073 159.31 244.972 163.584 245.272 172.925C245.272 173.72 245.272 174.615 245.272 175.41C245.272 178.192 245.372 183.956 246.571 184.354C246.771 184.453 246.871 184.354 246.871 184.354C248.27 183.559 249.47 177.795 250.769 171.733L250.969 170.938C251.269 169.447 251.569 167.559 251.968 165.671C253.368 157.223 254.367 152.056 257.665 152.056C261.363 152.056 262.363 158.814 263.662 166.664C263.962 168.255 264.162 169.745 264.462 171.137C266.061 179.584 266.461 181.373 267.96 181.273C267.96 181.273 269.059 180.876 269.559 175.31C269.959 170.938 269.859 164.776 269.859 159.31C269.859 156.329 270.259 153.447 270.858 150.863C264.162 149.174 255.866 147.087 247.871 142.018C237.076 135.161 235.677 120.354 235.777 106.739C235.777 99.6831 237.576 94.7142 241.274 91.8322C245.972 87.9564 253.667 87.2607 265.661 89.5465C274.356 91.2359 279.753 94.1179 282.452 98.6893C287.349 106.739 283.951 119.161 278.354 137.348C277.854 138.938 277.255 140.528 276.655 142.217C275.856 144.304 275.056 146.391 274.356 148.677C280.553 150.168 285.65 151.261 294.446 153.149L295.145 153.348C297.244 153.845 299.043 154.143 300.442 154.54C306.239 155.832 307.938 156.23 309.338 155.932C310.437 155.733 312.636 154.838 314.835 153.944C317.133 153.05 319.432 152.056 321.031 151.658L321.631 151.459C324.629 150.664 325.829 150.366 329.427 150.565C334.624 150.963 334.424 156.627 334.224 161.298C334.224 162.192 334.124 162.987 334.124 163.782C334.124 165.273 334.124 166.664 334.124 167.956C334.124 179.087 334.124 185.248 336.523 185.447C336.723 185.447 336.923 185.447 337.023 185.248C338.922 183.658 339.421 175.31 340.021 166.565C340.021 165.77 340.721 165.174 341.52 165.273C342.32 165.273 342.919 165.969 342.82 166.764C342.02 178.789 341.52 185.149 338.822 187.435C337.922 188.329 337.223 188.627 336.323 188.627ZM253.667 91.4347C248.77 91.4347 245.172 92.4285 242.773 94.3167C239.775 96.8011 238.376 100.776 238.376 107.137C238.276 125.323 241.474 135.161 249.17 139.932C256.766 144.702 264.861 146.789 271.358 148.379C272.058 145.994 272.957 143.708 273.757 141.621C274.356 139.932 274.956 138.341 275.456 136.851C280.653 119.956 284.051 107.435 279.853 100.478C277.555 96.6024 272.757 94.1179 264.961 92.6272C260.564 91.9316 256.766 91.4347 253.667 91.4347Z" fill="black"/>
<path d="M31.6868 189.522C31.1871 189.522 30.5874 189.422 29.8878 188.826C26.6895 186.242 25.2903 174.317 24.6906 167.46C23.4912 153.05 20.4928 147.286 17.6944 141.82C16.3951 139.335 15.0957 136.752 13.9963 133.472C9.39881 119.857 9.7986 103.46 12.797 96.0062C14.1962 92.528 16.6949 89.646 20.193 87.4596C15.9953 87.9565 13.0968 89.3478 10.998 91.7329C7.79967 95.4099 6.50037 101.77 7.29994 110.615C7.99957 119.161 10.1984 145.199 2.60247 157.919C2.20268 158.615 1.30317 158.814 0.703489 158.416C0.00386513 158.019 -0.196027 157.124 0.203758 156.528C7.29994 144.602 5.20107 119.161 4.50145 110.814C3.70188 101.075 5.10112 94.2174 8.89908 89.8447C12.797 85.3727 18.394 84.5776 22.2919 84.3789C24.0909 84.2795 25.9899 84.1801 27.8889 84.2795C32.0866 83.1863 36.884 82.7888 42.2811 82.9876C45.5794 83.1863 48.7776 83.3851 52.2758 83.6832C63.07 84.4783 75.3633 85.3727 93.1538 84.0807C98.4509 83.6832 103.248 83.2857 107.746 82.7888C121.339 81.4969 132.033 80.5031 144.126 82.6894C147.824 83.3851 150.523 84.0808 152.722 84.7764C152.422 83.7826 152.222 82.6894 152.122 81.5963C152.122 80.3043 152.622 79.3106 153.721 78.7143C156.42 77.2236 161.617 78.913 163.916 80.3044C164.815 80.3044 167.214 77.7205 168.113 76.9255L168.313 76.7267C169.113 75.8323 171.512 73.8447 175.31 73.8447C179.907 73.8447 181.506 74.9379 183.105 76.4286C183.305 76.6273 183.505 76.8261 183.705 76.9255C184.405 77.5217 185.104 78.2174 185.604 78.8137C186.703 80.0062 187.403 80.7019 188.203 80.7019C188.702 80.7019 189.302 80.205 190.102 79.7081C191.801 78.5155 194.099 76.8261 198.397 76.9255C199.896 76.9255 200.996 77.8199 201.595 79.2112C202.395 81.5963 201.396 85.3727 199.497 87.0621C197.997 88.354 195.998 88.9503 194 89.646C192.8 90.0435 191.501 90.441 190.401 90.9379C190.202 91.3354 189.602 93.2236 189.102 99.9814C189.002 101.472 188.902 103.161 188.902 104.752C188.802 107.335 188.702 109.72 188.403 111.509C188.003 114.093 186.304 115.981 183.705 116.975C179.507 118.466 173.71 117.273 171.911 115.783C170.712 114.689 169.813 113.795 169.013 112.901C167.914 111.708 167.114 110.814 166.214 110.516C165.515 110.217 165.115 109.422 165.315 108.727C165.615 108.031 166.414 107.634 167.114 107.832C168.613 108.329 169.713 109.522 171.012 110.913C171.811 111.708 172.611 112.602 173.71 113.596C174.61 114.391 179.307 115.484 182.606 114.292C184.305 113.696 185.304 112.602 185.504 111.012C185.704 109.422 185.804 107.037 185.904 104.652C186.004 102.963 186.004 101.273 186.104 99.6832C186.803 90.1429 187.703 88.9503 188.702 88.4534C190.102 87.7578 191.501 87.2609 193 86.764C194.799 86.1677 196.398 85.6708 197.498 84.7764C198.597 83.882 199.297 81.2981 198.797 80.0062C198.597 79.6087 198.497 79.5093 198.197 79.5093C194.899 79.4099 193.2 80.7019 191.701 81.795C190.601 82.5901 189.502 83.3851 188.103 83.3851C186.104 83.3851 184.705 81.9938 183.405 80.6025C182.905 80.0062 182.306 79.5093 181.706 79.0124C181.406 78.8137 181.206 78.6149 181.007 78.3168C179.907 77.323 179.008 76.528 175.11 76.528C172.311 76.528 170.612 78.118 170.112 78.6149L169.912 78.8137C167.714 81.0994 164.715 84.2795 162.217 82.6894C160.218 81.4969 156.12 80.5031 154.921 81.1988C154.821 81.2981 154.721 81.2981 154.721 81.5963C154.721 83.1863 155.32 84.8758 156.12 85.8696C156.52 86.3665 159.018 87.3603 161.417 87.9565C162.217 88.1553 162.616 88.9503 162.417 89.646C162.217 90.441 161.517 90.8385 160.717 90.6398C158.818 90.2422 157.319 89.5466 155.62 88.9503C152.722 87.8571 149.523 86.5652 143.327 85.4721C131.533 83.3851 121.538 84.2795 107.646 85.6708C103.048 86.0683 98.351 86.5652 92.9539 86.9627C74.9636 88.2547 62.5702 87.3602 51.6761 86.5652C48.2779 86.2671 45.1796 86.0683 41.9813 85.9689C52.9754 88.5528 61.5708 94.3168 62.3703 105.05C63.4697 120.851 61.171 133.075 46.5788 145.099C39.6825 150.764 39.2827 155.634 38.4832 165.273C38.3832 166.267 38.2833 167.36 38.1833 168.453C38.1833 168.95 38.0834 169.646 37.9834 170.342C37.2838 179.783 36.0845 189.124 31.4869 189.621C31.7868 189.522 31.7868 189.522 31.6868 189.522ZM28.0888 87.1615C21.7921 88.9503 17.3945 92.2298 15.4955 97C12.697 103.957 12.4971 119.957 16.6949 132.478C17.6944 135.559 18.9937 137.944 20.293 140.429C23.2913 146.193 26.3897 152.155 27.589 167.161C28.5885 179.484 30.5874 185.944 31.6868 186.64C32.8862 186.342 34.4853 183.261 35.5847 170.043C35.6847 169.248 35.6847 168.652 35.7846 168.155C35.8846 167.062 35.9845 165.969 36.0845 164.975C36.884 155.137 37.4837 149.273 45.1796 142.814C58.8722 131.584 60.9711 120.056 59.9716 105.149C58.8722 89.7453 38.783 87.3602 28.0888 87.1615Z" fill="black"/>
<path d="M144.526 189.323C144.426 189.323 144.326 189.323 144.226 189.323C139.529 189.124 138.729 182.267 138.03 175.112L137.93 174.516C137.83 173.224 137.63 171.733 137.53 170.143C137.23 166.168 136.43 157.82 135.131 156.727C135.031 156.727 134.931 156.727 134.831 156.925C133.132 158.416 132.732 165.472 132.533 169.745C132.433 171.236 132.433 172.429 132.233 173.522C132.033 175.211 132.033 176.901 131.933 178.59C131.733 182.764 131.633 186.441 129.634 188.13C128.835 188.826 127.735 189.124 126.436 189.025C122.938 188.627 122.438 183.658 121.838 176.006L121.738 174.217C121.539 172.23 121.439 170.441 121.339 168.752C120.939 163.087 120.639 158.516 119.14 152.553C111.644 154.441 104.548 155.832 98.251 157.124C95.1527 157.72 92.654 158.615 90.3553 159.41C86.2575 160.901 82.6594 162.193 78.5616 160.404C66.1683 155.037 57.273 152.752 55.8738 153.547C53.7749 155.037 54.0748 162.789 54.3746 169.05C54.6744 176.404 54.9743 183.36 52.3757 186.143C51.5761 186.938 50.5766 187.435 49.4772 187.435H49.3773C44.9797 187.435 43.9802 180.279 42.0812 166.168L41.4815 162.193C41.3816 161.397 41.8813 160.702 42.6809 160.602C43.4805 160.503 44.1801 161 44.28 161.795L44.8797 165.77C46.0791 174.615 47.4783 184.652 49.3773 184.652C49.7771 184.652 50.0769 184.553 50.2768 184.255C52.0758 182.366 51.776 175.41 51.4762 169.248C51.0764 160.901 50.7765 153.745 54.1747 151.36C57.5729 148.975 71.5654 154.441 79.661 157.919C82.7593 159.211 85.5578 158.217 89.3558 156.826C91.7545 155.932 94.3531 155.037 97.6513 154.342C103.848 153.149 110.944 151.758 118.34 149.87C116.741 144.304 114.142 137.248 109.745 127.211C103.848 113.795 102.649 106.043 105.547 100.478C107.946 95.8075 113.543 92.6273 123.038 90.6397C146.325 85.7702 154.221 92.7267 159.318 105.547C162.816 114.391 163.016 122.342 159.718 129.298C155.62 137.944 146.225 144.602 131.733 149.075C128.435 150.168 125.137 151.062 121.838 151.957C123.437 158.317 123.737 162.988 124.137 168.652C124.237 170.342 124.337 172.13 124.537 174.019L124.637 175.807C124.937 179.683 125.536 186.143 126.736 186.242C127.335 186.342 127.635 186.143 127.735 186.043C128.835 185.149 128.935 181.77 129.034 178.491C129.134 176.801 129.134 175.012 129.334 173.224C129.434 172.329 129.534 171.037 129.534 169.646C129.934 162.888 130.434 157.025 132.832 154.938C133.532 154.342 134.432 154.043 135.331 154.043C138.629 154.242 139.429 160.205 140.228 170.043C140.328 171.634 140.528 173.124 140.628 174.317L140.728 174.913C141.328 180.379 142.027 186.441 144.326 186.64C144.826 186.64 145.026 186.54 145.226 186.342C146.625 185.05 146.625 179.783 146.625 174.317V172.727C146.725 158.118 149.623 155.335 155.42 149.87C156.82 148.578 158.319 147.087 160.118 145.199C165.815 139.137 166.914 134.963 167.514 132.18L167.714 131.484C168.313 129.099 168.713 126.714 169.113 124.031C169.313 122.54 169.613 121.05 169.813 119.46C169.912 118.665 170.712 118.168 171.412 118.366C172.211 118.466 172.711 119.261 172.511 119.957C172.211 121.447 172.011 123.037 171.811 124.429C171.412 127.112 171.012 129.596 170.412 132.081L170.212 132.776C169.513 135.857 168.313 140.429 162.117 147.087C160.318 148.975 158.719 150.466 157.319 151.857C151.722 157.124 149.424 159.311 149.424 172.727V174.317C149.424 181.571 149.424 186.242 147.125 188.429C146.425 188.925 145.526 189.323 144.526 189.323ZM136.331 91.7329C132.732 91.7329 128.535 92.2298 123.537 93.323C114.942 95.1118 110.045 97.795 108.046 101.671C105.547 106.441 106.846 113.497 112.343 126.019C116.841 136.155 119.44 143.311 121.139 149.075C124.337 148.279 127.635 147.286 130.933 146.292C144.626 142.019 153.421 135.857 157.219 128.006C160.118 121.845 160.018 114.59 156.72 106.54C152.922 97.1988 148.124 91.7329 136.331 91.7329Z" fill="black"/>
</svg>
