<svg width="532" height="413" viewBox="0 0 532 413" fill="none" xmlns="http://www.w3.org/2000/svg">
<path d="M248.887 73.6873C247.887 73.6873 247.029 72.9774 246.886 71.9837C246.744 70.8479 247.601 69.8541 248.601 69.7121C259.173 68.4344 270.032 66.7308 280.461 65.3111C318.465 59.6323 357.754 53.8115 393.329 62.1877C394.472 62.4717 395.043 63.4655 394.758 64.6012C394.472 65.737 393.472 66.3049 392.329 66.0209C357.468 57.7867 320.322 63.3235 281.033 69.1443C270.603 70.7059 259.745 72.2676 249.03 73.6873H248.887Z" fill="black"/>
<path d="M336.466 90.0132C309.607 90.0132 272.174 82.0629 225.313 66.4462C201.882 58.6378 173.594 52.5331 140.305 66.5881C139.305 67.0141 138.019 66.5881 137.59 65.4524C137.162 64.3166 137.59 63.1809 138.733 62.755C173.451 48.1321 203.882 54.9466 226.599 62.471C273.032 77.9457 309.892 85.7541 336.466 85.7541C337.609 85.7541 338.466 86.6059 338.466 87.7416C338.466 88.8774 337.466 90.0132 336.466 90.0132Z" fill="black"/>
<path d="M263.888 320.005C256.173 320.005 248.458 319.437 240.743 318.301C198.739 312.339 161.45 289.623 135.876 254.273C135.161 253.421 135.447 252.143 136.304 251.434C137.162 250.724 138.447 251.008 139.162 251.859C189.309 320.999 282.604 336.332 356.325 287.636C357.325 287.068 358.468 287.21 359.183 288.204C359.754 289.198 359.611 290.333 358.611 291.043C329.751 310.067 296.891 320.005 263.888 320.005Z" fill="black"/>
<path d="M412.759 103.216C411.902 103.216 411.188 102.649 410.902 101.797C392.329 49.2679 339.61 -3.82878 247.029 4.97335C213.312 8.23866 184.452 20.732 160.878 42.4534C137.733 63.8908 125.875 88.8775 120.874 101.797C120.446 102.791 119.303 103.358 118.303 102.933C117.303 102.507 116.731 101.371 117.16 100.377C122.303 87.0319 134.447 61.4773 158.164 39.472C182.309 17.3247 212.026 4.2635 246.601 0.998199C341.467 -8.08787 395.615 46.4285 414.617 100.519C415.045 101.513 414.474 102.649 413.331 103.075C413.188 103.075 412.902 103.216 412.759 103.216Z" fill="black"/>
<path d="M45.2958 269.321C44.5814 269.321 43.7242 269.179 42.7241 268.327C38.1522 264.636 36.1521 247.6 35.2948 237.804C33.5804 217.218 29.2943 208.984 25.2939 201.176C23.4366 197.626 21.5792 193.935 20.0077 189.25C13.4356 169.8 14.0071 146.375 18.2932 135.728C20.2934 130.759 23.8652 126.642 28.8656 123.518C22.8651 124.228 18.7218 126.216 15.7215 129.623C11.1497 134.876 9.29236 143.962 10.4353 156.597C11.4354 168.807 14.5786 206.003 3.72041 224.175C3.14892 225.169 1.86309 225.453 1.00586 224.885C0.00576925 224.317 -0.279972 223.039 0.291511 222.187C10.4353 205.151 7.43504 168.807 6.43495 156.881C5.29198 142.968 7.29217 133.172 12.7213 126.925C18.2932 120.537 26.294 119.401 31.8659 119.117C34.4376 118.975 37.1521 118.833 39.8667 118.975C45.8673 117.414 52.725 116.846 60.4401 117.13C65.1548 117.414 69.7267 117.697 74.7271 118.123C90.1572 119.259 107.73 120.537 133.161 118.691C140.733 118.123 147.591 117.555 154.02 116.846C173.451 115 188.738 113.58 206.025 116.704C211.311 117.697 215.169 118.691 218.312 119.685C217.884 118.265 217.598 116.704 217.455 115.142C217.455 113.296 218.169 111.877 219.741 111.025C223.598 108.895 231.028 111.309 234.314 113.296C235.599 113.296 239.028 109.605 240.314 108.469L240.6 108.185C241.743 106.908 245.172 104.068 250.601 104.068C257.173 104.068 259.459 105.63 261.745 107.76C262.031 108.044 262.316 108.327 262.602 108.469C263.602 109.321 264.602 110.315 265.317 111.167C266.888 112.87 267.888 113.864 269.031 113.864C269.746 113.864 270.603 113.154 271.746 112.445C274.175 110.741 277.461 108.327 283.604 108.469C285.747 108.469 287.319 109.747 288.176 111.735C289.319 115.142 287.89 120.537 285.176 122.95C283.033 124.796 280.175 125.648 277.318 126.642C275.603 127.209 273.746 127.777 272.174 128.487C271.889 129.055 271.031 131.752 270.317 141.406C270.174 143.536 270.031 145.949 270.031 148.221C269.888 151.912 269.746 155.319 269.317 157.875C268.745 161.566 266.317 164.264 262.602 165.683C256.601 167.813 248.315 166.109 245.743 163.98C244.029 162.418 242.743 161.14 241.6 159.862C240.028 158.159 238.886 156.881 237.6 156.455C236.6 156.029 236.028 154.894 236.314 153.9C236.742 152.906 237.885 152.338 238.886 152.622C241.029 153.332 242.6 155.036 244.457 157.023C245.6 158.159 246.743 159.437 248.315 160.856C249.601 161.992 256.316 163.554 261.03 161.85C263.459 160.998 264.888 159.437 265.174 157.165C265.459 154.894 265.602 151.486 265.745 148.079C265.888 145.666 265.888 143.252 266.031 140.981C267.031 127.351 268.317 125.648 269.746 124.938C271.746 123.944 273.746 123.234 275.889 122.524C278.461 121.673 280.747 120.963 282.318 119.685C283.89 118.407 284.89 114.716 284.176 112.87C283.89 112.303 283.747 112.161 283.318 112.161C278.604 112.019 276.175 113.864 274.032 115.426C272.46 116.562 270.889 117.697 268.888 117.697C266.031 117.697 264.031 115.71 262.173 113.722C261.459 112.87 260.602 112.161 259.745 111.451C259.316 111.167 259.03 110.883 258.745 110.457C257.173 109.037 255.887 107.902 250.315 107.902C246.315 107.902 243.886 110.173 243.172 110.883L242.886 111.167C239.743 114.432 235.457 118.975 231.885 116.704C229.027 115 223.17 113.58 221.455 114.574C221.312 114.716 221.17 114.716 221.17 115.142C221.17 117.414 222.027 119.827 223.17 121.247C223.741 121.957 227.313 123.376 230.742 124.228C231.885 124.512 232.456 125.648 232.171 126.642C231.885 127.777 230.885 128.345 229.742 128.061C227.027 127.493 224.884 126.5 222.455 125.648C218.312 124.086 213.74 122.24 204.882 120.679C188.024 117.697 173.736 118.975 153.877 120.963C147.305 121.531 140.59 122.24 132.875 122.808C107.159 124.654 89.4428 123.376 73.8699 122.24C69.0123 121.815 64.5833 121.531 60.0114 121.389C75.7272 125.08 88.0141 133.314 89.1571 148.647C90.7286 171.22 87.4426 188.682 66.5835 205.861C56.7254 213.953 56.1539 220.91 55.011 234.681C54.8681 236.1 54.7252 237.662 54.5824 239.224C54.5824 239.933 54.4395 240.927 54.2966 241.921C53.2965 255.408 51.5821 268.753 45.01 269.463C45.4386 269.321 45.4386 269.321 45.2958 269.321ZM40.1524 123.092C31.1516 125.648 24.8653 130.333 22.1507 137.147C18.1503 147.085 17.8646 169.942 23.8652 187.831C25.2939 192.232 27.1512 195.639 29.0085 199.188C33.2946 207.422 37.7236 215.941 39.4381 237.378C40.8668 254.982 43.7242 264.21 45.2958 265.204C47.0102 264.778 49.2961 260.377 50.8677 241.495C51.0106 240.359 51.0106 239.508 51.1535 238.798C51.2963 237.236 51.4392 235.674 51.5821 234.255C52.725 220.2 53.5823 211.823 64.5833 202.595C84.1566 186.553 87.1569 170.084 85.7282 148.789C84.1566 126.784 55.4396 123.376 40.1524 123.092Z" fill="black"/>
<path d="M206.597 269.037C206.454 269.037 206.311 269.037 206.168 269.037C199.453 268.753 198.31 258.957 197.31 248.735L197.167 247.884C197.024 246.038 196.739 243.909 196.596 241.637C196.167 235.958 195.024 224.033 193.167 222.471C193.024 222.471 192.881 222.471 192.738 222.755C190.309 224.885 189.738 234.964 189.452 241.069C189.309 243.199 189.309 244.902 189.023 246.464C188.738 248.877 188.738 251.291 188.595 253.704C188.309 259.667 188.166 264.92 185.309 267.334C184.166 268.327 182.594 268.753 180.737 268.611C175.737 268.043 175.022 260.945 174.165 250.013L174.022 247.458C173.736 244.618 173.593 242.063 173.451 239.649C172.879 231.557 172.45 225.027 170.307 216.508C159.592 219.206 149.448 221.193 140.447 223.039C136.018 223.891 132.447 225.168 129.161 226.304C123.303 228.434 118.16 230.279 112.302 227.724C94.586 220.058 81.8705 216.792 79.8703 217.928C76.87 220.058 77.2986 231.131 77.7272 240.075C78.1559 250.581 78.5845 260.519 74.8698 264.494C73.7269 265.63 72.2982 266.34 70.7266 266.34H70.5837C64.2974 266.34 62.8687 256.118 60.1541 235.958L59.2969 230.279C59.1541 229.144 59.8684 228.15 61.0114 228.008C62.1543 227.866 63.1544 228.576 63.2973 229.712L64.1545 235.39C65.869 248.026 67.8692 262.365 70.5837 262.365C71.1552 262.365 71.5838 262.223 71.8695 261.797C74.4412 259.099 74.0126 249.161 73.584 240.359C73.0125 228.434 72.5839 218.212 77.4415 214.805C82.2991 211.397 102.301 219.206 113.874 224.175C118.303 226.02 122.303 224.601 127.732 222.613C131.161 221.335 134.876 220.058 139.59 219.064C148.448 217.36 158.592 215.373 169.164 212.675C166.879 204.725 163.164 194.645 156.878 180.306C148.448 161.14 146.734 150.066 150.877 142.116C154.306 135.444 162.307 130.901 175.879 128.061C209.168 121.105 220.455 131.043 227.741 149.357C232.742 161.992 233.028 173.35 228.313 183.287C222.455 195.639 209.025 205.151 188.309 211.539C183.594 213.101 178.88 214.379 174.165 215.657C176.451 224.743 176.879 231.415 177.451 239.507C177.594 241.921 177.737 244.476 178.022 247.174L178.165 249.729C178.594 255.266 179.451 264.494 181.166 264.636C182.023 264.778 182.451 264.494 182.594 264.352C184.166 263.074 184.309 258.247 184.452 253.562C184.595 251.149 184.594 248.594 184.88 246.038C185.023 244.76 185.166 242.915 185.166 240.927C185.737 231.273 186.452 222.897 189.881 219.916C190.881 219.064 192.167 218.638 193.452 218.638C198.167 218.922 199.31 227.44 200.453 241.495C200.596 243.767 200.882 245.896 201.025 247.6L201.168 248.452C202.025 256.26 203.025 264.92 206.311 265.204C207.025 265.204 207.311 265.062 207.597 264.778C209.597 262.932 209.597 255.408 209.597 247.6V245.328C209.74 224.459 213.883 220.484 222.169 212.675C224.17 210.83 226.313 208.7 228.884 206.003C237.028 197.342 238.6 191.38 239.457 187.405L239.743 186.411C240.6 183.003 241.171 179.596 241.743 175.763C242.029 173.633 242.457 171.504 242.743 169.232C242.886 168.097 244.029 167.387 245.029 167.671C246.172 167.813 246.886 168.948 246.6 169.942C246.172 172.072 245.886 174.343 245.6 176.331C245.029 180.164 244.457 183.713 243.6 187.263L243.314 188.256C242.314 192.657 240.6 199.188 231.742 208.7C229.17 211.397 226.884 213.527 224.884 215.515C216.883 223.039 213.597 226.162 213.597 245.328V247.6C213.597 257.964 213.597 264.636 210.311 267.759C209.311 268.469 208.025 269.037 206.597 269.037ZM194.881 129.623C189.738 129.623 183.737 130.333 176.594 131.894C164.307 134.45 157.306 138.283 154.449 143.82C150.877 150.634 152.734 160.714 160.592 178.602C167.021 193.083 170.736 203.305 173.165 211.539C177.737 210.404 182.451 208.984 187.166 207.564C206.739 201.46 219.312 192.657 224.741 181.442C228.884 172.64 228.742 162.276 224.027 150.776C218.598 137.431 211.74 129.623 194.881 129.623Z" fill="black"/>
<path d="M506.768 270.883C500.767 270.883 498.053 258.957 494.624 243.908C492.338 233.545 489.624 221.761 486.052 217.218C484.052 214.663 478.48 210.119 472.622 205.434C466.478 200.466 460.192 195.355 456.049 191.096C446.762 181.442 445.048 160.572 447.334 145.381C448.905 135.159 455.62 128.061 468.05 123.802C431.475 125.647 403.615 125.08 363.469 122.098C360.326 121.814 357.611 121.672 355.182 121.388C336.609 119.685 334.609 119.543 322.322 141.832C315.178 154.893 314.607 156.171 313.464 158.726C312.75 160.288 312.035 162.276 309.749 166.961L308.892 168.664C306.749 173.207 305.32 176.047 302.891 179.738C302.32 180.59 301.034 180.874 300.034 180.306C299.177 179.738 298.891 178.46 299.463 177.466C301.749 174.059 303.034 171.504 305.177 166.961L306.035 165.257C308.321 160.572 309.035 158.726 309.606 157.307C310.749 154.467 311.321 153.19 318.607 139.986C331.751 116.135 335.466 115.71 355.325 117.555C357.754 117.839 360.468 117.981 363.612 118.265C408.044 121.53 437.476 121.814 480.337 119.259C484.48 118.975 488.195 119.117 491.624 119.543C494.767 119.259 498.053 119.117 501.482 118.975C510.34 118.691 517.198 121.388 522.055 126.925C530.199 136.295 532.199 153.616 527.77 178.318C525.055 194.077 526.484 210.829 531.342 219.206C531.913 220.199 531.628 221.335 530.627 221.903C529.627 222.471 528.484 222.187 527.913 221.193C522.484 211.965 520.912 194.503 523.77 177.608C527.913 154.041 526.341 137.857 518.912 129.481C515.34 125.364 510.34 123.234 503.911 122.95C509.483 125.789 513.483 130.332 515.626 136.295C521.341 151.912 521.484 185.275 512.054 213.811C509.768 220.909 510.768 233.828 511.483 241.637C511.626 242.915 511.626 244.05 511.768 245.044V245.896C512.769 259.525 513.197 270.031 507.339 270.883C507.197 270.883 507.054 270.883 506.768 270.883ZM491.767 123.234C466.336 125.364 453.477 132.604 451.334 145.807C448.191 166.251 453.049 182.009 458.906 188.256C462.764 192.373 469.05 197.342 475.051 202.169C481.48 207.28 486.909 211.823 489.195 214.663C493.338 219.915 495.91 231.699 498.481 242.915C500.339 251.433 504.053 267.191 506.768 266.765C506.768 266.765 508.054 266.198 508.34 260.377C508.482 255.976 508.197 250.439 507.768 246.038V245.186C507.625 244.192 507.625 243.056 507.482 241.779C506.768 233.119 505.625 220.199 508.197 212.391C517.483 184.565 517.34 152.48 511.768 137.431C508.911 129.339 502.339 124.654 491.767 123.234Z" fill="black"/>
<path d="M480.766 268.043C480.623 268.043 480.48 268.043 480.337 268.043C473.193 267.476 473.193 259.099 473.193 239.082C473.193 237.236 473.193 235.248 473.193 233.119C473.193 231.983 473.193 230.705 473.336 229.428C473.622 221.761 473.193 218.496 470.193 218.212C465.764 217.928 464.478 218.212 460.478 219.348L459.621 219.632C457.621 220.2 454.335 221.477 451.334 222.755C447.905 224.175 444.619 225.453 442.762 225.878C440.047 226.446 437.619 225.878 428.475 223.891C426.332 223.465 423.903 222.897 420.903 222.187L419.903 221.903C407.33 219.206 400.044 217.644 391.043 215.373C390.186 218.78 389.757 222.471 389.757 226.446C390.043 248.594 389.9 261.229 383.471 261.797C377.47 262.365 376.613 257.396 374.041 244.051C373.613 242.063 373.327 239.791 372.898 237.52C372.041 232.267 370.327 221.335 368.326 220.2C366.612 221.619 365.04 231.131 364.183 236.242C363.754 239.082 363.326 241.779 362.754 244.051L362.469 245.186C359.897 257.254 358.468 263.784 354.896 265.772C353.754 266.482 352.468 266.624 351.182 266.198C346.61 264.778 346.467 257.396 346.467 249.587C346.467 248.31 346.467 247.174 346.467 246.038C346.039 233.119 344.896 227.298 344.038 222.897C343.753 221.761 343.61 220.626 343.324 219.49C342.467 214.663 340.609 211.539 338.181 210.688C334.895 209.552 329.894 211.823 324.179 217.076C315.178 225.311 312.178 230.279 309.606 234.255C308.178 236.526 306.892 238.656 304.892 240.927C299.748 246.464 291.891 249.729 285.461 251.717C284.318 252.143 282.318 253.279 280.604 254.414C278.746 255.55 277.175 256.544 275.889 256.97C272.031 258.248 267.317 256.828 263.745 253.421C260.03 249.871 258.602 245.186 259.887 240.927C261.03 236.952 263.459 230.989 265.317 226.304C266.602 223.181 267.603 220.342 268.031 218.922C268.603 217.36 268.888 215.657 269.317 213.953C270.174 209.978 271.031 205.861 273.889 203.163C274.46 202.595 274.603 201.886 275.032 200.608C275.603 198.478 276.46 195.639 280.032 192.941C282.747 190.812 285.033 191.238 286.604 191.522C287.033 191.664 287.462 191.664 287.747 191.664C288.176 189.818 288.747 188.114 289.033 187.263L289.176 186.979C290.89 183.287 293.319 181.3 296.177 181.3C298.748 181.442 301.034 183.429 302.32 186.553C303.177 188.824 305.749 195.923 297.891 206.854C297.177 207.706 296.034 207.99 295.034 207.28C294.176 206.571 293.891 205.435 294.605 204.441C301.32 195.355 299.32 189.96 298.605 187.972C298.034 186.411 297.034 185.417 296.177 185.275C295.177 185.275 293.891 186.553 293.033 188.398C292.605 189.676 292.033 191.664 291.605 193.651C291.462 194.361 291.033 194.929 290.462 195.071C288.747 195.781 287.176 195.497 286.033 195.355C284.604 195.071 283.89 194.929 282.604 195.923C280.032 197.91 279.604 199.756 278.889 201.602C278.461 203.021 278.032 204.583 276.746 205.861C274.746 207.706 274.032 211.114 273.317 214.663C272.889 216.366 272.603 218.212 272.031 220.058C271.46 221.619 270.46 224.459 269.174 227.582C267.317 232.267 265.031 238.088 263.888 241.921C263.031 244.76 264.031 247.884 266.602 250.297C269.031 252.711 272.317 253.704 274.603 252.853C275.318 252.569 277.032 251.575 278.461 250.723C280.461 249.445 282.604 248.168 284.175 247.6C290.033 245.612 297.462 242.773 301.891 237.804C303.749 235.816 304.892 233.971 306.178 231.699C308.749 227.44 312.035 222.329 321.465 213.669C328.608 207.138 334.609 204.725 339.609 206.429C342.467 207.422 346.181 210.262 347.467 218.496C347.61 219.49 347.896 220.484 348.039 221.761C348.896 226.162 350.182 232.267 350.61 245.612C350.61 246.748 350.61 248.026 350.61 249.161C350.61 253.137 350.753 261.371 352.468 261.939C352.753 262.081 352.896 261.939 352.896 261.939C354.896 260.803 356.611 252.569 358.468 243.909L358.754 242.773C359.183 240.643 359.611 237.946 360.183 235.248C362.183 223.181 363.612 215.799 368.326 215.799C373.613 215.799 375.041 225.452 376.899 236.668C377.327 238.94 377.613 241.069 378.042 243.057C380.327 255.124 380.899 257.68 383.042 257.538C383.042 257.538 384.614 256.97 385.328 249.019C385.899 242.773 385.757 233.971 385.757 226.162C385.757 221.903 386.328 217.786 387.185 214.095C377.613 211.681 365.755 208.7 354.325 201.46C338.895 191.664 336.895 170.51 337.038 151.06C337.038 140.98 339.609 133.882 344.896 129.765C351.61 124.228 362.611 123.234 379.756 126.5C392.186 128.913 399.901 133.03 403.758 139.561C410.759 151.06 405.901 168.807 397.901 194.787C397.186 197.059 396.329 199.33 395.472 201.744C394.329 204.725 393.186 207.706 392.186 210.972C401.044 213.101 408.33 214.663 420.903 217.36L421.903 217.644C424.903 218.354 427.475 218.78 429.475 219.348C437.762 221.193 440.19 221.761 442.19 221.335C443.762 221.051 446.905 219.774 450.048 218.496C453.334 217.218 456.62 215.799 458.906 215.231L459.764 214.947C464.05 213.811 465.764 213.385 470.908 213.669C478.337 214.237 478.051 222.329 477.765 229.002C477.765 230.279 477.622 231.415 477.622 232.551C477.622 234.681 477.622 236.668 477.622 238.514C477.622 254.414 477.622 263.216 481.051 263.5C481.337 263.5 481.623 263.5 481.766 263.216C484.48 260.945 485.195 249.019 486.052 236.526C486.052 235.39 487.052 234.539 488.195 234.681C489.338 234.681 490.195 235.674 490.052 236.81C488.909 253.988 488.195 263.075 484.337 266.34C483.052 267.618 482.051 268.043 480.766 268.043ZM362.612 129.197C355.611 129.197 350.467 130.617 347.039 133.314C342.752 136.863 340.752 142.542 340.752 151.628C340.609 177.609 345.181 191.664 356.182 198.478C367.041 205.293 378.613 208.274 387.9 210.546C388.9 207.138 390.186 203.873 391.329 200.892C392.186 198.478 393.043 196.207 393.757 194.077C401.187 169.942 406.044 152.054 400.044 142.116C396.758 136.579 389.9 133.03 378.756 130.901C372.47 129.907 367.041 129.197 362.612 129.197Z" fill="black"/>
<path d="M65.1522 412.005H58.8162L41.1522 383.717L36.6722 375.397H36.6082L36.8642 382.181V412.005H32.0002V369.765H38.3362L55.9362 397.925L60.4802 406.373H60.5442L60.2882 399.589V369.765H65.1522V412.005Z" fill="black"/>
<path d="M90.9817 379.365C95.8031 379.365 99.5791 380.837 102.31 383.781C105.083 386.725 106.47 390.8 106.47 396.005C106.47 401.21 105.083 405.285 102.31 408.229C99.5791 411.173 95.8031 412.645 90.9817 412.645C86.1604 412.645 82.3631 411.173 79.5897 408.229C76.8591 405.285 75.4937 401.21 75.4937 396.005C75.4937 390.8 76.8591 386.725 79.5897 383.781C82.3631 380.837 86.1604 379.365 90.9817 379.365ZM90.9817 383.781C87.7391 383.781 85.2004 384.869 83.3657 387.045C81.5311 389.221 80.6137 392.208 80.6137 396.005C80.6137 399.802 81.5311 402.789 83.3657 404.965C85.2004 407.141 87.7391 408.229 90.9817 408.229C94.2244 408.229 96.7631 407.141 98.5977 404.965C100.432 402.789 101.35 399.802 101.35 396.005C101.35 392.208 100.432 389.221 98.5977 387.045C96.7631 384.869 94.2244 383.781 90.9817 383.781Z" fill="black"/>
<path d="M161.879 380.005L150.743 412.005H145.623L136.599 386.533L128.087 412.005H122.967L111.831 380.005H117.527L125.591 406.053L134.295 380.005H139.415L148.119 406.053L156.183 380.005H161.879Z" fill="black"/>
<path d="M196.684 394.341C196.684 395.536 196.598 396.73 196.428 397.925H172.3C172.598 401.168 173.665 403.685 175.5 405.477C177.377 407.269 179.788 408.165 182.732 408.165C185.078 408.165 187.02 407.76 188.556 406.949C190.134 406.138 191.201 404.965 191.756 403.429L196.044 405.669C194.764 407.93 193.057 409.658 190.924 410.853C188.79 412.048 186.06 412.645 182.732 412.645C177.91 412.645 174.113 411.173 171.34 408.229C168.609 405.285 167.244 401.21 167.244 396.005C167.244 390.8 168.545 386.725 171.148 383.781C173.793 380.837 177.526 379.365 182.348 379.365C185.334 379.365 187.916 380.026 190.092 381.349C192.268 382.672 193.91 384.464 195.02 386.725C196.129 388.986 196.684 391.525 196.684 394.341ZM182.348 383.845C179.532 383.845 177.249 384.677 175.5 386.341C173.793 388.005 172.748 390.352 172.364 393.381H191.756C191.414 390.394 190.433 388.069 188.812 386.405C187.19 384.698 185.036 383.845 182.348 383.845Z" fill="black"/>
<path d="M221.967 379.365C225.594 379.365 228.581 380.41 230.927 382.501C233.274 384.592 234.447 387.6 234.447 391.525V412.005H229.327V393.317C229.327 389.989 228.602 387.578 227.151 386.085C225.743 384.592 223.845 383.845 221.455 383.845C219.749 383.845 218.149 384.229 216.655 384.997C215.162 385.722 213.925 386.938 212.943 388.645C212.005 390.309 211.535 392.421 211.535 394.981V412.005H206.415V380.005H210.895L211.215 384.997C212.282 383.077 213.754 381.669 215.631 380.773C217.509 379.834 219.621 379.365 221.967 379.365Z" fill="black"/>
<path d="M274.456 365.285V412.005H269.976L269.656 406.437C268.718 408.314 267.267 409.829 265.304 410.981C263.384 412.09 261.187 412.645 258.712 412.645C254.232 412.645 250.67 411.173 248.024 408.229C245.422 405.242 244.12 401.168 244.12 396.005C244.12 390.842 245.422 386.789 248.024 383.845C250.67 380.858 254.232 379.365 258.712 379.365C261.059 379.365 263.15 379.877 264.984 380.901C266.862 381.925 268.312 383.29 269.336 384.997V365.285H274.456ZM259.288 408.165C262.36 408.165 264.792 407.098 266.584 404.965C268.419 402.832 269.336 399.973 269.336 396.389V395.621C269.336 392.037 268.419 389.178 266.584 387.045C264.792 384.912 262.36 383.845 259.288 383.845C256.174 383.845 253.72 384.954 251.928 387.173C250.136 389.349 249.24 392.293 249.24 396.005C249.24 399.717 250.136 402.682 251.928 404.901C253.72 407.077 256.174 408.165 259.288 408.165Z" fill="black"/>
<path d="M299.857 379.365C304.678 379.365 308.454 380.837 311.185 383.781C313.958 386.725 315.345 390.8 315.345 396.005C315.345 401.21 313.958 405.285 311.185 408.229C308.454 411.173 304.678 412.645 299.857 412.645C295.035 412.645 291.238 411.173 288.465 408.229C285.734 405.285 284.369 401.21 284.369 396.005C284.369 390.8 285.734 386.725 288.465 383.781C291.238 380.837 295.035 379.365 299.857 379.365ZM299.857 383.781C296.614 383.781 294.075 384.869 292.241 387.045C290.406 389.221 289.489 392.208 289.489 396.005C289.489 399.802 290.406 402.789 292.241 404.965C294.075 407.141 296.614 408.229 299.857 408.229C303.099 408.229 305.638 407.141 307.473 404.965C309.307 402.789 310.225 399.802 310.225 396.005C310.225 392.208 309.307 389.221 307.473 387.045C305.638 384.869 303.099 383.781 299.857 383.781Z" fill="black"/>
<path d="M338.794 379.365C341.994 379.365 344.682 380.112 346.858 381.605C349.077 383.056 350.805 385.146 352.042 387.877L347.178 390.181C345.813 385.957 342.976 383.845 338.666 383.845C335.466 383.845 332.949 384.933 331.114 387.109C329.322 389.242 328.426 392.208 328.426 396.005C328.426 399.802 329.322 402.789 331.114 404.965C332.949 407.098 335.466 408.165 338.666 408.165C341.141 408.165 343.125 407.61 344.618 406.501C346.154 405.349 347.157 403.706 347.626 401.573L352.362 403.237C351.253 406.224 349.546 408.549 347.242 410.213C344.938 411.834 342.122 412.645 338.794 412.645C333.973 412.645 330.176 411.173 327.402 408.229C324.672 405.285 323.306 401.21 323.306 396.005C323.306 390.8 324.672 386.725 327.402 383.781C330.176 380.837 333.973 379.365 338.794 379.365Z" fill="black"/>
<path d="M399.42 394.469H389.308V412.005H384.188V369.765H400.188C404.497 369.765 407.953 370.874 410.556 373.093C413.158 375.312 414.46 378.32 414.46 382.117C414.46 385.104 413.628 387.621 411.964 389.669C410.3 391.717 408.017 393.125 405.116 393.893L417.02 412.005H410.94L399.42 394.469ZM389.308 389.669H400.124C406.097 389.669 409.084 387.152 409.084 382.117C409.084 377.082 406.097 374.565 400.124 374.565H389.308V389.669Z" fill="black"/>
<path d="M452.815 380.005V412.005H448.335L448.015 407.141C445.881 410.81 442.063 412.645 436.559 412.645C433.103 412.645 430.265 411.685 428.047 409.765C425.871 407.845 424.783 404.901 424.783 400.933V380.005H429.903V399.589C429.903 402.704 430.543 404.922 431.823 406.245C433.103 407.525 434.98 408.165 437.455 408.165C440.399 408.165 442.831 407.269 444.751 405.477C446.713 403.685 447.695 400.997 447.695 397.413V380.005H452.815Z" fill="black"/>
<path d="M480.28 379.365C483.906 379.365 486.893 380.41 489.24 382.501C491.586 384.592 492.76 387.6 492.76 391.525V412.005H487.64V393.317C487.64 389.989 486.914 387.578 485.464 386.085C484.056 384.592 482.157 383.845 479.768 383.845C478.061 383.845 476.461 384.229 474.968 384.997C473.474 385.722 472.237 386.938 471.256 388.645C470.317 390.309 469.848 392.421 469.848 394.981V412.005H464.728V380.005H469.208L469.528 384.997C470.594 383.077 472.066 381.669 473.944 380.773C475.821 379.834 477.933 379.365 480.28 379.365Z" fill="black"/>
</svg>
